<svg xmlns="http://www.w3.org/2000/svg" width="88" height="53.674" viewBox="0 0 88 53.674">
  <g id="Group_2562" data-name="Group 2562" transform="translate(-462.929 -88.391)">
    <path id="Path_398" data-name="Path 398" d="M551.547,167.3H493.695a6.453,6.453,0,0,1-6.233-8.123h0a6.454,6.454,0,0,1,6.233-4.783h57.853a6.453,6.453,0,0,1,6.233,8.123h0A6.453,6.453,0,0,1,551.547,167.3Z" transform="translate(-9.049 -25.236)" fill="#e76128"/>
    <path id="Union_1" data-name="Union 1" d="M-2196.29-890.256a1.743,1.743,0,0,0,.6-.282,1.764,1.764,0,0,0,.552-.636.4.4,0,0,0,.068-.182.434.434,0,0,0-.059-.2l-1.472-3.7h1.117l.727,2.158c.083.248.167.554.224.786h.024c.067-.231.141-.529.215-.794l.629-2.15h1.092l-1.01,2.746a6.024,6.024,0,0,1-1.406,2.588,2.039,2.039,0,0,1-1.067.521Zm-1.772-.967v-2.225c0-.671-.231-1.067-.719-1.067a.775.775,0,0,0-.712.538,1.475,1.475,0,0,0-.05.338v2.416h-.992v-2.333c0-.562-.224-.959-.7-.959a.794.794,0,0,0-.727.579.872.872,0,0,0-.057.331v2.382h-.993v-2.829c0-.464-.009-.852-.034-1.2h.878l.041.6h.024a1.4,1.4,0,0,1,1.241-.687,1.162,1.162,0,0,1,1.117.744h.016a1.521,1.521,0,0,1,.5-.5,1.345,1.345,0,0,1,.811-.24c.67,0,1.348.455,1.348,1.745v2.374Zm25.57-9.89a11.077,11.077,0,0,1-2.7-1.266l-.012-.008a10.68,10.68,0,0,1-3.391-3.67,10.081,10.081,0,0,1-1.292-5.018v-13.3h6.237v13.3a4.039,4.039,0,0,0,.327,1.618,4.309,4.309,0,0,0,.9,1.338,4.162,4.162,0,0,0,1.344.9,4.079,4.079,0,0,0,1.636.331,3.942,3.942,0,0,0,1.607-.328,4.535,4.535,0,0,0,1.36-.909,4.079,4.079,0,0,0,.908-1.328,4.035,4.035,0,0,0,.328-1.618v-13.3h6.237v13.3a10.2,10.2,0,0,1-1.269,5.011,10.361,10.361,0,0,1-3.421,3.683,11.074,11.074,0,0,1-2.706,1.269,10.154,10.154,0,0,1-3.044.457A10.16,10.16,0,0,1-2172.492-901.113Zm39.432-.508a11.929,11.929,0,0,1-3.77-2.536,11.921,11.921,0,0,1-2.536-3.77,11.706,11.706,0,0,1-.923-4.629,11.712,11.712,0,0,1,.923-4.63,11.927,11.927,0,0,1,2.536-3.769,11.921,11.921,0,0,1,3.77-2.536,11.715,11.715,0,0,1,4.63-.923,11.533,11.533,0,0,1,3.894.654,12.437,12.437,0,0,1,1.728.772v-15.947h6.237v26.38a11.73,11.73,0,0,1-.923,4.629,11.938,11.938,0,0,1-2.537,3.769,11.885,11.885,0,0,1-3.77,2.537,11.7,11.7,0,0,1-4.629.924A11.7,11.7,0,0,1-2133.06-901.621Zm2.477-16.124a5.65,5.65,0,0,0-1.794,1.205,5.926,5.926,0,0,0-1.228,1.814,5.28,5.28,0,0,0-.448,2.169,5.342,5.342,0,0,0,.448,2.168,5.926,5.926,0,0,0,1.228,1.814,5.637,5.637,0,0,0,1.795,1.205,5.528,5.528,0,0,0,2.173.434,5.52,5.52,0,0,0,2.171-.434,5.6,5.6,0,0,0,1.794-1.205,5.647,5.647,0,0,0,1.2-1.8,5.559,5.559,0,0,0,.434-2.181v-.041a5.408,5.408,0,0,0-.432-2.155,5.628,5.628,0,0,0-1.2-1.787,5.634,5.634,0,0,0-1.794-1.2,5.527,5.527,0,0,0-2.171-.435A5.544,5.544,0,0,0-2130.583-917.744Zm-66.758,16.124a11.914,11.914,0,0,1-3.77-2.537,11.936,11.936,0,0,1-2.536-3.769,11.707,11.707,0,0,1-.923-4.629v-26.38h6.24l-.04,15.947a12.387,12.387,0,0,1,1.747-.773,11.706,11.706,0,0,1,3.911-.653,11.731,11.731,0,0,1,4.631.922,11.951,11.951,0,0,1,3.769,2.537,11.92,11.92,0,0,1,2.536,3.77,11.722,11.722,0,0,1,.923,4.63,11.72,11.72,0,0,1-.923,4.629,11.929,11.929,0,0,1-2.535,3.769,11.92,11.92,0,0,1-3.77,2.537,11.71,11.71,0,0,1-4.631.924A11.706,11.706,0,0,1-2197.341-901.621Zm2.478-16.124a5.632,5.632,0,0,0-1.794,1.2,5.994,5.994,0,0,0-1.231,1.8,5.143,5.143,0,0,0-.446,2.143v.041a5.342,5.342,0,0,0,.448,2.168,5.914,5.914,0,0,0,1.229,1.814,5.6,5.6,0,0,0,1.794,1.205,5.518,5.518,0,0,0,2.172.434,5.515,5.515,0,0,0,2.171-.434,5.616,5.616,0,0,0,1.795-1.205,5.645,5.645,0,0,0,1.2-1.8,5.577,5.577,0,0,0,.434-2.182,5.561,5.561,0,0,0-.435-2.182,5.664,5.664,0,0,0-1.2-1.8,5.662,5.662,0,0,0-1.8-1.2,5.526,5.526,0,0,0-2.171-.435A5.531,5.531,0,0,0-2194.863-917.744Zm38.01,17.006v-23.718h6.236v23.718Zm8.765-.205v-37.909h6.236v37.909Zm-8.765-24.957v-6.238h6.236v6.238Z" transform="translate(2667.5 1027.327)" fill="#fff"/>
    <g id="Group_1520" data-name="Group 1520" transform="translate(483.535 131.994)">
      <path id="Path_406" data-name="Path 406" d="M495.988,159.708a.174.174,0,0,1,.179-.24l1.167,0a.205.205,0,0,1,.18.138l.873,3.379h.04l1.531-3.52a.189.189,0,0,1,.169-.111h.179a.168.168,0,0,1,.17.11l1.562,3.5h.04l.843-3.387a.2.2,0,0,1,.179-.14l1.168-.006a.174.174,0,0,1,.18.239l-1.855,6.714a.191.191,0,0,1-.179.141h-.16a.2.2,0,0,1-.171-.11l-1.844-4.073h-.03l-1.8,4.089a.2.2,0,0,1-.169.111h-.16a.191.191,0,0,1-.18-.139Z" transform="translate(-495.977 -159.153)" fill="#fff"/>
      <path id="Path_407" data-name="Path 407" d="M510.751,159.65a.2.2,0,0,1,.19-.19l1.187-.006a.189.189,0,0,1,.19.188l.011,2.514,2.854-.012-.011-2.515a.19.19,0,0,1,.189-.19l1.187-.005a.2.2,0,0,1,.19.189l.03,6.607a.2.2,0,0,1-.188.19l-1.188.005a.19.19,0,0,1-.19-.188l-.012-2.625-2.854.013.012,2.625a.189.189,0,0,1-.188.19l-1.187.006a.2.2,0,0,1-.191-.189Z" transform="translate(-501.713 -159.186)" fill="#fff"/>
      <path id="Path_408" data-name="Path 408" d="M522.525,159.6a.19.19,0,0,1,.189-.19l4.131-.019a.19.19,0,0,1,.19.189l0,1.088a.188.188,0,0,1-.188.19l-2.764.013,0,1.238,2.275-.011a.2.2,0,0,1,.191.19l0,1.087a.189.189,0,0,1-.189.19l-2.275.011.007,1.347,2.764-.013a.189.189,0,0,1,.19.188l0,1.088a.188.188,0,0,1-.188.19l-4.131.019a.19.19,0,0,1-.191-.188Z" transform="translate(-506.284 -159.17)" fill="#fff"/>
      <path id="Path_409" data-name="Path 409" d="M531.264,159.561a.19.19,0,0,1,.19-.191l4.131-.018a.189.189,0,0,1,.19.188l0,1.088a.189.189,0,0,1-.188.191l-2.764.012.005,1.238,2.275-.011a.2.2,0,0,1,.192.189l0,1.088a.189.189,0,0,1-.19.19l-2.275.011.007,1.347,2.765-.012a.188.188,0,0,1,.19.188l0,1.088a.189.189,0,0,1-.188.19l-4.131.018a.189.189,0,0,1-.191-.188Z" transform="translate(-509.677 -159.154)" fill="#fff"/>
      <path id="Path_410" data-name="Path 410" d="M540,159.53a.19.19,0,0,1,.19-.191l1.188,0a.2.2,0,0,1,.19.188l.024,5.329,2.375-.011a.189.189,0,0,1,.19.188l0,1.088a.19.19,0,0,1-.189.191l-3.751.017a.189.189,0,0,1-.192-.188Z" transform="translate(-513.07 -159.147)" fill="#fff"/>
      <path id="Path_411" data-name="Path 411" d="M550.22,159.125a3.356,3.356,0,0,1,2.42.916.186.186,0,0,1,.01.28l-.775.812a.174.174,0,0,1-.25,0,2.046,2.046,0,0,0-1.35-.5,2.043,2.043,0,0,0,.029,4.082,2.107,2.107,0,0,0,1.336-.485.2.2,0,0,1,.259.009l.782.825a.2.2,0,0,1-.009.269,3.427,3.427,0,0,1-2.42.979,3.592,3.592,0,1,1-.032-7.185Z" transform="translate(-515.643 -159.066)" fill="#fff"/>
      <path id="Path_412" data-name="Path 412" d="M557.6,159.437a.2.2,0,0,1,.19-.19l1.187-.006a.19.19,0,0,1,.191.189l.011,2.514,2.854-.013-.011-2.514a.189.189,0,0,1,.188-.19l1.188-.006a.2.2,0,0,1,.19.188l.03,6.607a.2.2,0,0,1-.188.19l-1.187.006a.19.19,0,0,1-.191-.189l-.012-2.625-2.854.013.012,2.625a.188.188,0,0,1-.188.19l-1.187.006a.2.2,0,0,1-.191-.188Z" transform="translate(-519.901 -159.104)" fill="#fff"/>
      <path id="Path_413" data-name="Path 413" d="M567.943,165.87l3.093-6.73a.2.2,0,0,1,.169-.11h.1a.2.2,0,0,1,.17.109l3.154,6.7a.175.175,0,0,1-.168.259l-1.108.006c-.179,0-.26-.058-.35-.248l-.363-.786-2.714.012-.355.8a.371.371,0,0,1-.358.241l-1.1,0A.177.177,0,0,1,567.943,165.87Zm4.092-2.154-.766-1.644h-.01l-.741,1.65Z" transform="translate(-523.909 -159.029)" fill="#fff"/>
      <path id="Path_414" data-name="Path 414" d="M579.354,159.351a.2.2,0,0,1,.189-.19l1.2-.005a.2.2,0,0,1,.19.188l.03,6.607a.2.2,0,0,1-.189.19l-1.2.005a.2.2,0,0,1-.191-.188Z" transform="translate(-528.346 -159.078)" fill="#fff"/>
      <path id="Path_415" data-name="Path 415" d="M583.919,159.325a.19.19,0,0,1,.19-.19l2.984-.013a2.133,2.133,0,0,1,.717,4.158l1.38,2.528a.189.189,0,0,1-.169.291l-1.328.006a.184.184,0,0,1-.16-.089l-1.34-2.639-.688,0,.012,2.545a.2.2,0,0,1-.189.19l-1.187.006a.19.19,0,0,1-.192-.189Zm3.056,2.781a.8.8,0,0,0,.755-.8.763.763,0,0,0-.761-.755l-1.477.006.006,1.557Z" transform="translate(-530.118 -159.065)" fill="#fff"/>
    </g>
  </g>
</svg>
