<svg xmlns="http://www.w3.org/2000/svg" width="88" height="53.674" viewBox="0 0 88 53.674">
  <g id="Group_1521" data-name="Group 1521" transform="translate(-462.93 -88.391)">
    <path id="Path_398" data-name="Path 398" d="M551.547,167.3H493.695a6.453,6.453,0,0,1-6.233-8.123h0a6.454,6.454,0,0,1,6.233-4.783h57.853a6.453,6.453,0,0,1,6.233,8.123h0A6.453,6.453,0,0,1,551.547,167.3Z" transform="translate(-9.049 -25.236)" fill="#e76128"/>
    <g id="Group_1518" data-name="Group 1518" transform="translate(463.929 89.391)">
      <path id="Path_399" data-name="Path 399" d="M474.788,103.912a10.684,10.684,0,0,1,4.237.842,10.836,10.836,0,0,1,5.779,5.779,11.067,11.067,0,0,1,0,8.473,10.836,10.836,0,0,1-5.779,5.779,11.059,11.059,0,0,1-8.473,0,10.838,10.838,0,0,1-5.78-5.779,10.667,10.667,0,0,1-.843-4.236V89.391h4.237l-.041,16.782a11.193,11.193,0,0,1,3.085-1.666A10.666,10.666,0,0,1,474.788,103.912Zm.021,17.481a6.486,6.486,0,0,0,2.562-.514,6.627,6.627,0,0,0,0-12.217,6.641,6.641,0,0,0-5.126,0,6.6,6.6,0,0,0-2.111,1.419,6.981,6.981,0,0,0-1.436,2.1,6.181,6.181,0,0,0-.532,2.55v.042a6.323,6.323,0,0,0,.532,2.571,6.9,6.9,0,0,0,1.436,2.118,6.579,6.579,0,0,0,2.111,1.419A6.488,6.488,0,0,0,474.809,121.392Z" transform="translate(-463.929 -89.391)" fill="#0c2a4a" stroke="#0c2a4a" stroke-miterlimit="10" stroke-width="2"/>
      <path id="Path_400" data-name="Path 400" d="M523.157,113.192v12.3a9.163,9.163,0,0,1-1.143,4.525,9.32,9.32,0,0,1-3.094,3.331,10.013,10.013,0,0,1-2.458,1.152,9.359,9.359,0,0,1-5.491,0,10.019,10.019,0,0,1-2.458-1.152,9.645,9.645,0,0,1-3.075-3.331,9.042,9.042,0,0,1-1.162-4.525v-12.3h4.237v12.3a5.009,5.009,0,0,0,.409,2.016,5.275,5.275,0,0,0,1.105,1.646,5.177,5.177,0,0,0,1.66,1.11,5.115,5.115,0,0,0,2.029.411,4.968,4.968,0,0,0,2.007-.411,5.493,5.493,0,0,0,1.659-1.11,5.1,5.1,0,0,0,1.127-1.646,5.019,5.019,0,0,0,.41-2.016v-12.3Z" transform="translate(-479.593 -98.631)" fill="#0c2a4a" stroke="#0c2a4a" stroke-miterlimit="10" stroke-width="2"/>
      <path id="Path_401" data-name="Path 401" d="M541.928,104.738V100.5h4.237v4.237Zm4.237,3.445V129.9h-4.237V108.183Z" transform="translate(-494.21 -93.704)" fill="#0c2a4a" stroke="#0c2a4a" stroke-miterlimit="10" stroke-width="2"/>
      <path id="Path_402" data-name="Path 402" d="M556.256,89.526h4.236v35.909h-4.236Z" transform="translate(-499.772 -89.443)" fill="#0c2a4a" stroke="#0c2a4a" stroke-miterlimit="10" stroke-width="2"/>
      <path id="Path_403" data-name="Path 403" d="M590.721,114.771a10.677,10.677,0,0,1-.843,4.236,10.84,10.84,0,0,1-5.779,5.779,11.059,11.059,0,0,1-8.473,0,10.835,10.835,0,0,1-5.779-5.779,11.067,11.067,0,0,1,0-8.473,10.835,10.835,0,0,1,5.779-5.779,10.678,10.678,0,0,1,4.237-.842,10.492,10.492,0,0,1,3.558.6,11.3,11.3,0,0,1,3.064,1.666V89.391h4.237v25.38Zm-10.838,6.622a6.486,6.486,0,0,0,2.562-.514,6.613,6.613,0,0,0,4.04-6.108v-.042a6.38,6.38,0,0,0-.513-2.55,6.675,6.675,0,0,0-1.414-2.1,6.6,6.6,0,0,0-2.112-1.419,6.641,6.641,0,0,0-5.126,0,6.6,6.6,0,0,0-2.111,1.419,6.91,6.91,0,0,0-1.435,2.119,6.468,6.468,0,0,0,0,5.142,6.9,6.9,0,0,0,1.435,2.118,6.587,6.587,0,0,0,2.111,1.419A6.491,6.491,0,0,0,579.883,121.392Z" transform="translate(-504.721 -89.391)" fill="#0c2a4a" stroke="#0c2a4a" stroke-miterlimit="10" stroke-width="2"/>
    </g>
    <g id="Group_1519" data-name="Group 1519" transform="translate(464.459 131.984)">
      <path id="Path_404" data-name="Path 404" d="M464.829,160.3c0-.463-.009-.852-.034-1.2h.877l.041.6h.025a1.4,1.4,0,0,1,1.241-.686,1.161,1.161,0,0,1,1.117.745h.016a1.525,1.525,0,0,1,.5-.5,1.344,1.344,0,0,1,.811-.24c.67,0,1.348.455,1.348,1.745v2.374h-.993v-2.225c0-.67-.231-1.067-.719-1.067a.776.776,0,0,0-.712.538,1.472,1.472,0,0,0-.05.339v2.415H467.3V160.8c0-.562-.223-.959-.695-.959a.794.794,0,0,0-.727.579.866.866,0,0,0-.058.331v2.382h-.992Z" transform="translate(-464.795 -159.013)" fill="#0c2a4a"/>
      <path id="Path_405" data-name="Path 405" d="M476.435,159.162l.727,2.158c.083.248.166.554.224.786h.024c.066-.231.141-.529.215-.794l.629-2.15h1.092l-1.009,2.746a6.032,6.032,0,0,1-1.406,2.588,2.043,2.043,0,0,1-1.068.521l-.231-.86a1.829,1.829,0,0,0,1.15-.918.408.408,0,0,0,.067-.182.432.432,0,0,0-.058-.2l-1.472-3.7Z" transform="translate(-468.88 -159.071)" fill="#0c2a4a"/>
    </g>
    <g id="Group_1520" data-name="Group 1520" transform="translate(483.535 131.994)">
      <path id="Path_406" data-name="Path 406" d="M495.988,159.708a.174.174,0,0,1,.179-.24l1.167,0a.205.205,0,0,1,.18.138l.873,3.379h.04l1.531-3.52a.189.189,0,0,1,.169-.111h.179a.168.168,0,0,1,.17.11l1.562,3.5h.04l.843-3.387a.2.2,0,0,1,.179-.14l1.168-.006a.174.174,0,0,1,.18.239l-1.855,6.714a.191.191,0,0,1-.179.141h-.16a.2.2,0,0,1-.171-.11l-1.844-4.073h-.03l-1.8,4.089a.2.2,0,0,1-.169.111h-.16a.191.191,0,0,1-.18-.139Z" transform="translate(-495.977 -159.153)" fill="#fff"/>
      <path id="Path_407" data-name="Path 407" d="M510.751,159.65a.2.2,0,0,1,.19-.19l1.187-.006a.189.189,0,0,1,.19.188l.011,2.514,2.854-.012-.011-2.515a.19.19,0,0,1,.189-.19l1.187-.005a.2.2,0,0,1,.19.189l.03,6.607a.2.2,0,0,1-.188.19l-1.188.005a.19.19,0,0,1-.19-.188l-.012-2.625-2.854.013.012,2.625a.189.189,0,0,1-.188.19l-1.187.006a.2.2,0,0,1-.191-.189Z" transform="translate(-501.713 -159.186)" fill="#fff"/>
      <path id="Path_408" data-name="Path 408" d="M522.525,159.6a.19.19,0,0,1,.189-.19l4.131-.019a.19.19,0,0,1,.19.189l0,1.088a.188.188,0,0,1-.188.19l-2.764.013,0,1.238,2.275-.011a.2.2,0,0,1,.191.19l0,1.087a.189.189,0,0,1-.189.19l-2.275.011.007,1.347,2.764-.013a.189.189,0,0,1,.19.188l0,1.088a.188.188,0,0,1-.188.19l-4.131.019a.19.19,0,0,1-.191-.188Z" transform="translate(-506.284 -159.17)" fill="#fff"/>
      <path id="Path_409" data-name="Path 409" d="M531.264,159.561a.19.19,0,0,1,.19-.191l4.131-.018a.189.189,0,0,1,.19.188l0,1.088a.189.189,0,0,1-.188.191l-2.764.012.005,1.238,2.275-.011a.2.2,0,0,1,.192.189l0,1.088a.189.189,0,0,1-.19.19l-2.275.011.007,1.347,2.765-.012a.188.188,0,0,1,.19.188l0,1.088a.189.189,0,0,1-.188.19l-4.131.018a.189.189,0,0,1-.191-.188Z" transform="translate(-509.677 -159.154)" fill="#fff"/>
      <path id="Path_410" data-name="Path 410" d="M540,159.53a.19.19,0,0,1,.19-.191l1.188,0a.2.2,0,0,1,.19.188l.024,5.329,2.375-.011a.189.189,0,0,1,.19.188l0,1.088a.19.19,0,0,1-.189.191l-3.751.017a.189.189,0,0,1-.192-.188Z" transform="translate(-513.07 -159.147)" fill="#fff"/>
      <path id="Path_411" data-name="Path 411" d="M550.22,159.125a3.356,3.356,0,0,1,2.42.916.186.186,0,0,1,.01.28l-.775.812a.174.174,0,0,1-.25,0,2.046,2.046,0,0,0-1.35-.5,2.043,2.043,0,0,0,.029,4.082,2.107,2.107,0,0,0,1.336-.485.2.2,0,0,1,.259.009l.782.825a.2.2,0,0,1-.009.269,3.427,3.427,0,0,1-2.42.979,3.592,3.592,0,1,1-.032-7.185Z" transform="translate(-515.643 -159.066)" fill="#fff"/>
      <path id="Path_412" data-name="Path 412" d="M557.6,159.437a.2.2,0,0,1,.19-.19l1.187-.006a.19.19,0,0,1,.191.189l.011,2.514,2.854-.013-.011-2.514a.189.189,0,0,1,.188-.19l1.188-.006a.2.2,0,0,1,.19.188l.03,6.607a.2.2,0,0,1-.188.19l-1.187.006a.19.19,0,0,1-.191-.189l-.012-2.625-2.854.013.012,2.625a.188.188,0,0,1-.188.19l-1.187.006a.2.2,0,0,1-.191-.188Z" transform="translate(-519.901 -159.104)" fill="#fff"/>
      <path id="Path_413" data-name="Path 413" d="M567.943,165.87l3.093-6.73a.2.2,0,0,1,.169-.11h.1a.2.2,0,0,1,.17.109l3.154,6.7a.175.175,0,0,1-.168.259l-1.108.006c-.179,0-.26-.058-.35-.248l-.363-.786-2.714.012-.355.8a.371.371,0,0,1-.358.241l-1.1,0A.177.177,0,0,1,567.943,165.87Zm4.092-2.154-.766-1.644h-.01l-.741,1.65Z" transform="translate(-523.909 -159.029)" fill="#fff"/>
      <path id="Path_414" data-name="Path 414" d="M579.354,159.351a.2.2,0,0,1,.189-.19l1.2-.005a.2.2,0,0,1,.19.188l.03,6.607a.2.2,0,0,1-.189.19l-1.2.005a.2.2,0,0,1-.191-.188Z" transform="translate(-528.346 -159.078)" fill="#fff"/>
      <path id="Path_415" data-name="Path 415" d="M583.919,159.325a.19.19,0,0,1,.19-.19l2.984-.013a2.133,2.133,0,0,1,.717,4.158l1.38,2.528a.189.189,0,0,1-.169.291l-1.328.006a.184.184,0,0,1-.16-.089l-1.34-2.639-.688,0,.012,2.545a.2.2,0,0,1-.189.19l-1.187.006a.19.19,0,0,1-.192-.189Zm3.056,2.781a.8.8,0,0,0,.755-.8.763.763,0,0,0-.761-.755l-1.477.006.006,1.557Z" transform="translate(-530.118 -159.065)" fill="#fff"/>
    </g>
  </g>
</svg>
